<?xml version="1.0" standalone="no"?><!DOCTYPE svg PUBLIC "-//W3C//DTD SVG 1.1//EN" "http://www.w3.org/Graphics/SVG/1.1/DTD/svg11.dtd"><svg t="1577585169788" class="icon" viewBox="0 0 1024 1024" version="1.1" xmlns="http://www.w3.org/2000/svg" p-id="12957" xmlns:xlink="http://www.w3.org/1999/xlink" width="200" height="200"><defs><style type="text/css"></style></defs><path d="M853.333333 955.733333a17.066667 17.066667 0 0 1-17.066666-17.066666v-110.933334H170.666667a17.066667 17.066667 0 1 1 0-34.133333h665.6V682.666667a17.066667 17.066667 0 1 1 34.133333 0v256a17.066667 17.066667 0 0 1-17.066667 17.066666zM85.333333 830.293333a17.066667 17.066667 0 0 1-17.066666-17.066666v-5.12a17.066667 17.066667 0 1 1 34.133333 0v5.137066a17.066667 17.066667 0 0 1-17.066667 17.0496zM597.333333 614.4c-30.754133 0-59.409067-6.673067-85.333333-19.848533-25.924267 13.175467-54.5792 19.848533-85.333333 19.848533-51.694933 0-96.529067-18.619733-133.239467-55.3472C257.262933 522.888533 238.933333 478.344533 238.933333 426.666667c0-51.6096 18.295467-96.4096 54.391467-133.137067C330.257067 257.2288 375.057067 238.933333 426.666667 238.933333c23.415467 0 45.397333 3.703467 65.706666 11.0592V85.333333a17.066667 17.066667 0 0 1 17.066667-17.066666H682.666667a17.066667 17.066667 0 0 1 7.714133 32.290133l-163.874133 83.1488v68.488533A189.064533 189.064533 0 0 1 597.333333 238.933333c51.677867 0 96.221867 18.3296 132.386134 54.493867C766.446933 330.1376 785.066667 374.971733 785.066667 426.666667c0 51.7632-18.653867 96.341333-55.4496 132.488533C693.674667 595.746133 649.079467 614.4 597.333333 614.4z m-85.333333-56.32c2.952533 0 5.888 0.768 8.533333 2.286933C543.402667 573.559467 569.2416 580.266667 597.333333 580.266667c42.8544 0 78.2336-14.7968 108.151467-45.243734C736.136533 504.8832 750.933333 469.521067 750.933333 426.666667c0-42.9056-14.830933-78.592-45.346133-109.1072C675.6352 287.624533 640.238933 273.066667 597.333333 273.066667c-28.1088 0-53.947733 6.690133-76.8 19.899733a17.066667 17.066667 0 0 1-16.213333 0.4608 29.7984 29.7984 0 0 1-4.5056-2.7648C478.3616 278.9888 453.751467 273.066667 426.666667 273.066667c-42.9568 0-78.677333 14.592-109.2096 44.5952C287.658667 347.989333 273.066667 383.709867 273.066667 426.666667c0 42.888533 14.557867 78.301867 44.4928 108.253866C348.074667 565.435733 383.761067 580.266667 426.666667 580.266667c28.091733 0 53.930667-6.7072 76.8-19.899734 2.645333-1.518933 5.5808-2.286933 8.533333-2.286933zM526.523733 102.4v43.025067L611.310933 102.4h-84.7872z" p-id="12958"></path><path d="M938.666667 972.8H210.773333c-43.690667-0.7168-81.2032-16.708267-112.0256-47.547733C67.908267 894.4128 51.9168 856.917333 51.2 813.806933c-0.017067-1.058133 0-2.0992 0.085333-3.140266A38.365867 38.365867 0 0 1 51.2 807.5264c0.7168-43.1104 16.708267-80.622933 47.547733-111.428267 30.805333-30.839467 68.3008-46.830933 111.4624-47.547733H463.36c2.030933 0 3.9936 0.187733 5.922133 0.512A34.986667 34.986667 0 0 1 475.306667 648.533333h74.24c2.030933 0 4.027733 0.187733 5.9904 0.512 1.928533-0.341333 3.925333-0.512 5.973333-0.512H938.666667a34.133333 34.133333 0 0 1 0 68.266667H561.493333c-2.030933 0-4.027733-0.187733-5.973333-0.512-1.928533 0.324267-3.9424 0.512-5.973333 0.512h-74.24c-2.030933 0-3.9936-0.187733-5.922134-0.512a33.3824 33.3824 0 0 1-6.024533 0.529067h-252.586667c-24.593067 0.4096-45.636267 9.4208-63.744 27.5456C128.887467 762.487467 119.876267 783.5136 119.466667 808.669867c0 0.6656-0.034133 1.3312-0.085334 1.9968l0.085334 1.9968c0.426667 25.156267 9.437867 46.1824 27.562666 64.324266 18.1248 18.1248 39.150933 27.136 64.324267 27.5456H938.666667a34.133333 34.133333 0 0 1 0 68.266667z" p-id="12959"></path></svg>